<svg class="border shadow-md dark:border-slate-700" viewBox="0 0 1267.2 712.8" style="width: 1267.2px; height: 712.8px;" xmlns="http://www.w3.org/2000/svg" preserveAspectRatio="none"><rect class="bg" id="bg" x="0" y="0" width="1267.2" height="712.8" fill="#ffffff"/><g transform="rotate(0 633.6 356.4)"><path id="-1" d="M -366.80 -41.28 S -193.40 -76.92&#xA;            0.00 -41.28 70.80 -93.28&#xA;            366.80 -41.28 540.20 -111.28&#xA;            733.60 -41.28 771.40 -76.92&#xA;            1100.40 -41.28 1273.80 -79.28&#xA;            1467.20 -41.28 1640.60 -76.92&#xA;            1834.00 -41.28 h 110 V 912.8 H -366.80 Z" fill="#151515"/><path id="0" d="M -366.80 30.00 S -193.40 -17.00&#xA;            0.00 30.00 173.40 -21.00&#xA;            366.80 30.00 540.20 -16.00&#xA;            733.60 30.00 907.00 -16.00&#xA;            1100.40 30.00 1273.80 -7.00&#xA;            1467.20 30.00 1640.60 -5.64&#xA;            1834.00 30.00 h 110 V 912.8 H -366.80 Z" fill="#181818"/><path id="1" d="M -366.80 101.28 S -245.00 49.28&#xA;            0.00 101.28 173.40 38.28&#xA;            366.80 101.28 540.20 53.28&#xA;            733.60 101.28 900.40 65.64&#xA;            1100.40 101.28 1273.80 65.64&#xA;            1467.20 101.28 1606.00 65.64&#xA;            1834.00 101.28 h 110 V 912.8 H -366.80 Z" fill="#1b1b1b"/><path id="2" d="M -366.80 172.56 S -193.40 136.92&#xA;            0.00 172.56 173.40 136.92&#xA;            366.80 172.56 540.20 126.56&#xA;            733.60 172.56 777.40 132.56&#xA;            1100.40 172.56 1273.80 133.56&#xA;            1467.20 172.56 1640.60 136.92&#xA;            1834.00 172.56 h 110 V 912.8 H -366.80 Z" fill="#1e1e1e"/><path id="3" d="M -366.80 243.84 S -193.40 184.84&#xA;            0.00 243.84 173.40 178.84&#xA;            366.80 243.84 540.20 174.84&#xA;            733.60 243.84 845.40 208.20&#xA;            1100.40 243.84 1273.80 208.20&#xA;            1467.20 243.84 1576.00 208.20&#xA;            1834.00 243.84 h 110 V 912.8 H -366.80 Z" fill="#212121"/><path id="4" d="M -366.80 315.12 S -322.00 279.48&#xA;            0.00 315.12 118.80 279.48&#xA;            366.80 315.12 517.60 278.12&#xA;            733.60 315.12 907.00 262.12&#xA;            1100.40 315.12 1273.80 257.12&#xA;            1467.20 315.12 1640.60 260.12&#xA;            1834.00 315.12 h 110 V 912.8 H -366.80 Z" fill="#242424"/><path id="5" d="M -366.80 386.40 S -353.00 350.76&#xA;            0.00 386.40 173.40 320.40&#xA;            366.80 386.40 532.60 330.40&#xA;            733.60 386.40 907.00 350.76&#xA;            1100.40 386.40 1273.80 327.40&#xA;            1467.20 386.40 1526.00 350.76&#xA;            1834.00 386.40 h 110 V 912.8 H -366.80 Z" fill="#272727"/><path id="6" d="M -366.80 457.68 S -193.40 406.68&#xA;            0.00 457.68 121.80 405.68&#xA;            366.80 457.68 540.20 422.04&#xA;            733.60 457.68 831.40 411.68&#xA;            1100.40 457.68 1224.20 400.68&#xA;            1467.20 457.68 1640.60 422.04&#xA;            1834.00 457.68 h 110 V 912.8 H -366.80 Z" fill="#2a2a2a"/><path id="7" d="M -366.80 528.96 S -353.00 468.96&#xA;            0.00 528.96 173.40 468.96&#xA;            366.80 528.96 540.20 468.96&#xA;            733.60 528.96 901.40 493.32&#xA;            1100.40 528.96 1104.20 480.96&#xA;            1467.20 528.96 1481.00 493.32&#xA;            1834.00 528.96 h 110 V 912.8 H -366.80 Z" fill="#2d2d2d"/><path id="8" d="M -366.80 600.24 S -193.40 564.60&#xA;            0.00 600.24 167.80 564.60&#xA;            366.80 600.24 540.20 564.60&#xA;            733.60 600.24 777.40 535.24&#xA;            1100.40 600.24 1273.80 534.24&#xA;            1467.20 600.24 1640.60 564.60&#xA;            1834.00 600.24 h 110 V 912.8 H -366.80 Z" fill="#303030"/><path id="9" d="M -366.80 671.52 S -193.40 635.88&#xA;            0.00 671.52 62.80 635.88&#xA;            366.80 671.52 540.20 603.52&#xA;            733.60 671.52 907.00 611.52&#xA;            1100.40 671.52 1273.80 635.88&#xA;            1467.20 671.52 1640.60 619.52&#xA;            1834.00 671.52 h 110 V 912.8 H -366.80 Z" fill="#333333"/></g></svg>